<mxfile host="app.diagrams.net" agent="Mozilla/5.0 (X11; Linux x86_64) AppleWebKit/537.36 (KHTML, like Gecko) Chrome/133.0.0.0 Safari/537.36 OPR/118.0.0.0" version="27.0.8">
  <diagram name="Page-1" id="YrxbDLgfzF-psmu8SgCK">
    <mxGraphModel dx="3224" dy="2429" grid="1" gridSize="10" guides="1" tooltips="1" connect="1" arrows="1" fold="1" page="1" pageScale="1" pageWidth="850" pageHeight="1100" math="0" shadow="0">
      <root>
        <mxCell id="0" />
        <mxCell id="1" parent="0" />
        <mxCell id="7JkVTvHRvjVN779wo3d3-29" style="edgeStyle=orthogonalEdgeStyle;rounded=0;orthogonalLoop=1;jettySize=auto;html=1;entryX=0.5;entryY=0;entryDx=0;entryDy=0;" edge="1" parent="1" source="c9mNuHGgu_CkPdpqZBWn-23" target="7JkVTvHRvjVN779wo3d3-12">
          <mxGeometry relative="1" as="geometry" />
        </mxCell>
        <mxCell id="c9mNuHGgu_CkPdpqZBWn-23" value="OR" style="rounded=1;whiteSpace=wrap;html=1;fillColor=#f8cecc;strokeColor=#b85450;" parent="1" vertex="1">
          <mxGeometry x="-466.25" y="350" width="60" height="30" as="geometry" />
        </mxCell>
        <mxCell id="7JkVTvHRvjVN779wo3d3-21" value="" style="group" vertex="1" connectable="0" parent="1">
          <mxGeometry x="-270" y="190" width="270" height="130" as="geometry" />
        </mxCell>
        <mxCell id="7JkVTvHRvjVN779wo3d3-9" value="" style="rounded=1;whiteSpace=wrap;html=1;fillColor=#dae8fc;strokeColor=#6c8ebf;container=0;" vertex="1" parent="7JkVTvHRvjVN779wo3d3-21">
          <mxGeometry width="270" height="130" as="geometry" />
        </mxCell>
        <mxCell id="7JkVTvHRvjVN779wo3d3-10" value="&lt;div&gt;&lt;h2 style=&quot;margin-top: 0px;&quot;&gt;Find by unusual open port&amp;nbsp;&lt;/h2&gt;&lt;pre style=&quot;margin-top: 0px;&quot;&gt;T1057&lt;/pre&gt;&lt;p&gt;&lt;font style=&quot;font-size: 14px;&quot;&gt;Find the Zheng process by looking for unusual open port on the process&lt;/font&gt;&lt;/p&gt;&lt;/div&gt;" style="text;html=1;whiteSpace=wrap;overflow=hidden;rounded=0;container=0;" vertex="1" parent="7JkVTvHRvjVN779wo3d3-21">
          <mxGeometry x="15" y="8.639999999999986" width="255" height="111.36" as="geometry" />
        </mxCell>
        <mxCell id="7JkVTvHRvjVN779wo3d3-22" value="" style="group" vertex="1" connectable="0" parent="1">
          <mxGeometry x="-591.25" y="190" width="310" height="130" as="geometry" />
        </mxCell>
        <mxCell id="7JkVTvHRvjVN779wo3d3-6" value="" style="rounded=1;whiteSpace=wrap;html=1;fillColor=#dae8fc;strokeColor=#6c8ebf;container=0;" vertex="1" parent="7JkVTvHRvjVN779wo3d3-22">
          <mxGeometry width="310" height="130" as="geometry" />
        </mxCell>
        <mxCell id="7JkVTvHRvjVN779wo3d3-7" value="&lt;div&gt;&lt;h2 style=&quot;margin-top: 0px;&quot;&gt;Find by dumped memory&amp;nbsp;&lt;/h2&gt;&lt;pre style=&quot;margin-top: 0px;&quot;&gt;T1057&lt;/pre&gt;&lt;p&gt;&lt;font style=&quot;font-size: 14px;&quot;&gt;Find the Zheng process by dumping the memory of the process to confirm the botnet&lt;/font&gt;&lt;/p&gt;&lt;/div&gt;" style="text;html=1;whiteSpace=wrap;overflow=hidden;rounded=0;container=0;" vertex="1" parent="7JkVTvHRvjVN779wo3d3-22">
          <mxGeometry x="15" y="8.639999999999986" width="285" height="111.36" as="geometry" />
        </mxCell>
        <mxCell id="7JkVTvHRvjVN779wo3d3-23" value="" style="group" vertex="1" connectable="0" parent="1">
          <mxGeometry x="-845" y="190" width="245" height="130" as="geometry" />
        </mxCell>
        <mxCell id="7JkVTvHRvjVN779wo3d3-3" value="" style="rounded=1;whiteSpace=wrap;html=1;fillColor=#dae8fc;strokeColor=#6c8ebf;container=0;" vertex="1" parent="7JkVTvHRvjVN779wo3d3-23">
          <mxGeometry width="244.99999999999997" height="130" as="geometry" />
        </mxCell>
        <mxCell id="7JkVTvHRvjVN779wo3d3-4" value="&lt;div&gt;&lt;h2 style=&quot;margin-top: 0px;&quot;&gt;Find by network usage&amp;nbsp;&lt;/h2&gt;&lt;pre style=&quot;margin-top: 0px;&quot;&gt;T1057&lt;/pre&gt;&lt;p&gt;&lt;font style=&quot;font-size: 14px;&quot;&gt;Find the Zheng process by looking for high network usage process&lt;/font&gt;&lt;/p&gt;&lt;/div&gt;" style="text;html=1;whiteSpace=wrap;overflow=hidden;rounded=0;container=0;" vertex="1" parent="7JkVTvHRvjVN779wo3d3-23">
          <mxGeometry x="15.312499999999998" y="8.639999999999986" width="229.68749999999997" height="111.36" as="geometry" />
        </mxCell>
        <mxCell id="7JkVTvHRvjVN779wo3d3-24" value="" style="group" vertex="1" connectable="0" parent="1">
          <mxGeometry x="-660" y="410" width="450" height="110" as="geometry" />
        </mxCell>
        <mxCell id="7JkVTvHRvjVN779wo3d3-12" value="" style="rounded=1;whiteSpace=wrap;html=1;fillColor=#dae8fc;strokeColor=#6c8ebf;container=0;" vertex="1" parent="7JkVTvHRvjVN779wo3d3-24">
          <mxGeometry width="447.5" height="110" as="geometry" />
        </mxCell>
        <mxCell id="7JkVTvHRvjVN779wo3d3-13" value="&lt;div&gt;&lt;h2 style=&quot;margin-top: 0px;&quot;&gt;Listen for custom packet on an infected machine&amp;nbsp;&lt;/h2&gt;&lt;pre style=&quot;margin-top: 0px;&quot;&gt;T1040&lt;/pre&gt;&lt;p&gt;&lt;font style=&quot;font-size: 14px;&quot;&gt;Listen for the incoming and outgoing packet of an infected machine&lt;/font&gt;&lt;/p&gt;&lt;/div&gt;" style="text;html=1;whiteSpace=wrap;overflow=hidden;rounded=0;container=0;" vertex="1" parent="7JkVTvHRvjVN779wo3d3-24">
          <mxGeometry x="15" y="8.639999999999986" width="435" height="91.36" as="geometry" />
        </mxCell>
        <mxCell id="7JkVTvHRvjVN779wo3d3-25" value="" style="group" vertex="1" connectable="0" parent="1">
          <mxGeometry x="-580" y="540" width="290" height="100" as="geometry" />
        </mxCell>
        <mxCell id="7JkVTvHRvjVN779wo3d3-15" value="" style="rounded=1;whiteSpace=wrap;html=1;fillColor=#dae8fc;strokeColor=#6c8ebf;container=0;" vertex="1" parent="7JkVTvHRvjVN779wo3d3-25">
          <mxGeometry width="290" height="100" as="geometry" />
        </mxCell>
        <mxCell id="7JkVTvHRvjVN779wo3d3-16" value="&lt;h2 style=&quot;margin-top: 0px;&quot;&gt;Reverse engineer and test&amp;nbsp;&lt;/h2&gt;&lt;pre style=&quot;margin-top: 0px;&quot;&gt;&lt;span style=&quot;font-size: 14px; background-color: transparent; color: light-dark(rgb(0, 0, 0), rgb(255, 255, 255)); font-family: Helvetica; white-space: normal;&quot;&gt;Reverse engineer the different packet to understand the packet exchanged&lt;/span&gt;&lt;/pre&gt;" style="text;html=1;whiteSpace=wrap;overflow=hidden;rounded=0;container=0;" vertex="1" parent="7JkVTvHRvjVN779wo3d3-25">
          <mxGeometry x="15" y="8.64" width="255" height="81.36" as="geometry" />
        </mxCell>
        <mxCell id="7JkVTvHRvjVN779wo3d3-26" value="" style="group" vertex="1" connectable="0" parent="1">
          <mxGeometry x="-555" y="660" width="240" height="100" as="geometry" />
        </mxCell>
        <mxCell id="7JkVTvHRvjVN779wo3d3-18" value="" style="rounded=1;whiteSpace=wrap;html=1;fillColor=#dae8fc;strokeColor=#6c8ebf;container=0;" vertex="1" parent="7JkVTvHRvjVN779wo3d3-26">
          <mxGeometry width="240" height="100" as="geometry" />
        </mxCell>
        <mxCell id="7JkVTvHRvjVN779wo3d3-19" value="&lt;h2 style=&quot;margin-top: 0px;&quot;&gt;Shutdown the botnet&amp;nbsp;&lt;/h2&gt;&lt;pre style=&quot;margin-top: 0px;&quot;&gt;&lt;span style=&quot;font-size: 14px; background-color: transparent; color: light-dark(rgb(0, 0, 0), rgb(255, 255, 255)); font-family: Helvetica; white-space: normal;&quot;&gt;Send a &quot;quit&quot; message with a high propagation to kill the botnet&lt;/span&gt;&lt;/pre&gt;" style="text;html=1;whiteSpace=wrap;overflow=hidden;rounded=0;container=0;" vertex="1" parent="7JkVTvHRvjVN779wo3d3-26">
          <mxGeometry x="15" y="8.6400000000001" width="215" height="91.36" as="geometry" />
        </mxCell>
        <mxCell id="7JkVTvHRvjVN779wo3d3-27" style="edgeStyle=orthogonalEdgeStyle;rounded=0;orthogonalLoop=1;jettySize=auto;html=1;entryX=0.5;entryY=0;entryDx=0;entryDy=0;" edge="1" parent="1" source="7JkVTvHRvjVN779wo3d3-15" target="7JkVTvHRvjVN779wo3d3-18">
          <mxGeometry relative="1" as="geometry" />
        </mxCell>
        <mxCell id="7JkVTvHRvjVN779wo3d3-28" style="edgeStyle=orthogonalEdgeStyle;rounded=0;orthogonalLoop=1;jettySize=auto;html=1;entryX=0.5;entryY=0;entryDx=0;entryDy=0;" edge="1" parent="1" source="7JkVTvHRvjVN779wo3d3-12" target="7JkVTvHRvjVN779wo3d3-15">
          <mxGeometry relative="1" as="geometry" />
        </mxCell>
        <mxCell id="7JkVTvHRvjVN779wo3d3-30" style="edgeStyle=orthogonalEdgeStyle;rounded=0;orthogonalLoop=1;jettySize=auto;html=1;entryX=0;entryY=0.5;entryDx=0;entryDy=0;exitX=0.5;exitY=1;exitDx=0;exitDy=0;" edge="1" parent="1" source="7JkVTvHRvjVN779wo3d3-3" target="c9mNuHGgu_CkPdpqZBWn-23">
          <mxGeometry relative="1" as="geometry">
            <Array as="points">
              <mxPoint x="-722" y="365" />
            </Array>
          </mxGeometry>
        </mxCell>
        <mxCell id="7JkVTvHRvjVN779wo3d3-32" style="edgeStyle=orthogonalEdgeStyle;rounded=0;orthogonalLoop=1;jettySize=auto;html=1;entryX=1;entryY=0.5;entryDx=0;entryDy=0;" edge="1" parent="1" source="7JkVTvHRvjVN779wo3d3-9" target="c9mNuHGgu_CkPdpqZBWn-23">
          <mxGeometry relative="1" as="geometry">
            <Array as="points">
              <mxPoint x="-135" y="365" />
            </Array>
          </mxGeometry>
        </mxCell>
        <mxCell id="7JkVTvHRvjVN779wo3d3-33" style="edgeStyle=orthogonalEdgeStyle;rounded=0;orthogonalLoop=1;jettySize=auto;html=1;entryX=0.5;entryY=0;entryDx=0;entryDy=0;" edge="1" parent="1" source="7JkVTvHRvjVN779wo3d3-6" target="c9mNuHGgu_CkPdpqZBWn-23">
          <mxGeometry relative="1" as="geometry" />
        </mxCell>
        <mxCell id="7JkVTvHRvjVN779wo3d3-34" value="" style="group" vertex="1" connectable="0" parent="1">
          <mxGeometry x="-580" y="30" width="287.5" height="110" as="geometry" />
        </mxCell>
        <mxCell id="8Rnsziw4uOwpHe0W4yz_-8" value="" style="rounded=1;whiteSpace=wrap;html=1;fillColor=#dae8fc;strokeColor=#6c8ebf;container=0;" parent="7JkVTvHRvjVN779wo3d3-34" vertex="1">
          <mxGeometry width="287.5" height="110" as="geometry" />
        </mxCell>
        <mxCell id="8Rnsziw4uOwpHe0W4yz_-9" value="&lt;div&gt;&lt;h2 style=&quot;margin-top: 0px;&quot;&gt;Enumerate process&amp;nbsp;&lt;/h2&gt;&lt;pre style=&quot;margin-top: 0px;&quot;&gt;T1057&lt;/pre&gt;&lt;p&gt;&lt;font style=&quot;font-size: 14px;&quot;&gt;Enumerate the process to find the botnet&lt;/font&gt;&lt;/p&gt;&lt;/div&gt;" style="text;html=1;whiteSpace=wrap;overflow=hidden;rounded=0;container=0;" parent="7JkVTvHRvjVN779wo3d3-34" vertex="1">
          <mxGeometry x="15" y="8.639999999999986" width="262.5" height="91.36" as="geometry" />
        </mxCell>
        <mxCell id="7JkVTvHRvjVN779wo3d3-35" style="edgeStyle=orthogonalEdgeStyle;rounded=0;orthogonalLoop=1;jettySize=auto;html=1;entryX=0.5;entryY=0;entryDx=0;entryDy=0;" edge="1" parent="1" source="8Rnsziw4uOwpHe0W4yz_-8" target="7JkVTvHRvjVN779wo3d3-6">
          <mxGeometry relative="1" as="geometry" />
        </mxCell>
        <mxCell id="7JkVTvHRvjVN779wo3d3-36" style="edgeStyle=orthogonalEdgeStyle;rounded=0;orthogonalLoop=1;jettySize=auto;html=1;entryX=0.5;entryY=0;entryDx=0;entryDy=0;" edge="1" parent="1" source="8Rnsziw4uOwpHe0W4yz_-8" target="7JkVTvHRvjVN779wo3d3-9">
          <mxGeometry relative="1" as="geometry">
            <Array as="points">
              <mxPoint x="-436" y="160" />
              <mxPoint x="-135" y="160" />
            </Array>
          </mxGeometry>
        </mxCell>
        <mxCell id="7JkVTvHRvjVN779wo3d3-37" style="edgeStyle=orthogonalEdgeStyle;rounded=0;orthogonalLoop=1;jettySize=auto;html=1;entryX=0.5;entryY=0;entryDx=0;entryDy=0;" edge="1" parent="1" source="8Rnsziw4uOwpHe0W4yz_-8" target="7JkVTvHRvjVN779wo3d3-3">
          <mxGeometry relative="1" as="geometry">
            <Array as="points">
              <mxPoint x="-436" y="160" />
              <mxPoint x="-722" y="160" />
            </Array>
          </mxGeometry>
        </mxCell>
      </root>
    </mxGraphModel>
  </diagram>
</mxfile>
